<svg width="24" height="28" viewBox="-2 -20 30 64" fill="none" xmlns="http://www.w3.org/2000/svg">
<path d="M2.34836 28H21.6516C22.8003 28 23.7565 27.1215 23.7565 26.0418V2.62852C23.7565 1.54863 22.8003 0.660858 21.6516 0.660858H18.4696V2.44863C18.4742 2.75896 18.2293 3.01575 17.9193 3.02608H6.04293C5.72662 3.01847 5.47119 2.76493 5.46086 2.44863V0.660858H2.34836C1.19972 0.660858 0.243469 1.54863 0.243469 2.62852V26.0418C0.243469 27.1215 1.19972 28 2.34836 28ZM6.64347 10.0522C6.64347 9.74483 6.89265 9.49564 7.19999 9.49564H10.0522V6.64347C10.0522 6.33613 10.3013 6.08695 10.6087 6.08695H13.3913C13.6986 6.08695 13.9478 6.33613 13.9478 6.64347V9.49564H16.8C17.1073 9.49564 17.3565 9.74483 17.3565 10.0522V12.8348C17.3565 13.1421 17.1073 13.3913 16.8 13.3913H13.9478V16.2435C13.9478 16.5508 13.6986 16.8 13.3913 16.8H10.6087C10.3013 16.8 10.0522 16.5508 10.0522 16.2435V13.3913H7.19999C6.89265 13.3913 6.64347 13.1421 6.64347 12.8348V10.0522ZM6.8701 19.6522H17.1299C17.4375 19.6522 17.6864 19.9013 17.6864 20.2087C17.6864 20.516 17.4375 20.7652 17.1299 20.7652H6.8701C6.56249 20.7652 6.31358 20.516 6.31358 20.2087C6.31358 19.9013 6.56249 19.6522 6.8701 19.6522ZM4.78314 22.4348H19.2168C19.5244 22.4348 19.7734 22.684 19.7734 22.9913C19.7734 23.2986 19.5244 23.5478 19.2168 23.5478H4.78314C4.47553 23.5478 4.22662 23.2986 4.22662 22.9913C4.22662 22.684 4.47553 22.4348 4.78314 22.4348Z" fill="white"/>
</svg>
