<?xml version="1.0" standalone="no"?>
<!DOCTYPE svg PUBLIC "-//W3C//DTD SVG 20010904//EN"
 "http://www.w3.org/TR/2001/REC-SVG-20010904/DTD/svg10.dtd">
<svg version="1.0" xmlns="http://www.w3.org/2000/svg"
 width="512.000000pt" height="512.000000pt" viewBox="0 0 512.000000 512.000000"
 preserveAspectRatio="xMidYMid meet">

<g transform="translate(0.000000,512.000000) scale(0.100000,-0.100000)"
fill="#000000" stroke="none">
<path d="M2250 4850 c-446 -47 -866 -217 -1215 -495 -97 -77 -283 -262 -358
-357 -258 -327 -420 -701 -484 -1118 -24 -158 -24 -482 0 -640 118 -766 582
-1406 1262 -1740 221 -108 411 -169 660 -212 172 -29 512 -31 680 -5 257 40
453 101 680 212 470 228 824 582 1060 1057 313 631 313 1380 1 2015 -228 463
-574 813 -1033 1046 -218 110 -448 184 -694 222 -124 19 -439 27 -559 15z
m-260 -1441 c152 -39 340 -153 448 -274 l48 -55 36 44 c21 24 71 71 112 104
252 202 534 256 827 158 217 -73 353 -198 427 -394 22 -58 26 -83 26 -192 1
-116 -2 -132 -31 -217 -35 -101 -87 -209 -139 -290 l-34 -53 -299 0 c-277 0
-300 1 -305 18 -2 9 -32 150 -66 312 -34 162 -69 310 -78 329 -33 69 -108 95
-153 55 -36 -32 -54 -85 -139 -414 -44 -173 -84 -323 -88 -333 -5 -13 -23 33
-60 155 -58 192 -74 218 -139 218 -59 0 -94 -45 -132 -170 -18 -58 -36 -116
-40 -130 l-8 -25 -476 -3 -477 -2 -27 42 c-181 287 -219 549 -112 774 49 102
166 216 279 271 196 97 402 121 600 72z m910 -1104 c32 -181 42 -205 101 -240
31 -18 57 -20 297 -25 l262 -5 -127 -137 c-71 -75 -159 -166 -198 -201 -169
-155 -421 -340 -654 -482 -109 -66 -89 -68 -249 32 -139 86 -281 186 -412 287
-105 81 -467 431 -489 474 l-12 22 421 0 c343 0 427 3 455 14 35 15 75 67 75
99 0 48 20 0 70 -171 46 -156 60 -192 86 -219 37 -39 73 -42 121 -13 38 23 34
10 139 440 43 173 78 311 80 305 2 -5 17 -86 34 -180z"/>
</g>
</svg>
