<svg width="30" height="32" viewBox="0 -15 30 62" fill="none" xmlns="http://www.w3.org/2000/svg">
<path d="M9.25001 20.5884V23.5C9.25001 28.1527 13.0348 32 17.6875 32C22.3402 32 26.125 28.1527 26.125 23.5V22.4676C28.262 22.0321 29.875 20.1385 29.875 17.875C29.875 15.2904 27.7721 13.1875 25.1875 13.1875C22.603 13.1875 20.5 15.2904 20.5 17.875C20.5 20.1385 22.1131 22.0321 24.25 22.4676V23.5C24.25 27.1182 21.3057 30.125 17.6875 30.125C14.0693 30.125 11.125 27.1182 11.125 23.5V20.5896C14.9511 19.8877 19.3667 15.1368 20.1311 10.6176C20.6323 7.64925 19.3938 5.273 16.75 4.08444V2.8125C16.75 1.26163 15.4884 0 13.9375 0C12.3866 0 11.125 1.26163 11.125 2.8125C11.125 4.36337 12.3866 5.625 13.9375 5.625H15.602C17.7591 6.42369 18.6658 8.03569 18.2817 10.3054C17.6235 14.201 13.2362 18.8125 10.1875 18.8125C6.77295 18.8125 2.02708 13.3901 1.99833 9.375C1.98551 7.58531 2.9232 6.30206 4.74789 5.625H6.43751C7.98839 5.625 9.25001 4.36337 9.25001 2.8125C9.25001 1.26163 7.98845 0 6.43751 0C4.88658 0 3.62501 1.26163 3.62501 2.8125V4.074C1.36983 5.08387 0.120139 6.97625 0.125014 9.375C0.134577 14.0759 5.00508 19.802 9.25001 20.5884V20.5884ZM24.25 16.9375H26.125V18.8125H24.25V16.9375Z" fill="white"/>
</svg>
